<svg xmlns="http://www.w3.org/2000/svg" width="31" height="21" viewBox="0 0 31 21">
  <g id="flag_uk_ic" transform="translate(0.5 0.5)">
    <path id="Path_821" data-name="Path 821" d="M27.753,88.276H2.247A2.267,2.267,0,0,0,0,90.562V105.99a2.267,2.267,0,0,0,2.247,2.286H27.753A2.267,2.267,0,0,0,30,105.99V90.562A2.267,2.267,0,0,0,27.753,88.276Z" transform="translate(0 -88.276)" fill="#012169"/>
    <path id="Path_822" data-name="Path 822" d="M29.969,90.183a2.259,2.259,0,0,0-2.216-1.908h-.585l-9.582,6.388V88.275H12.414v6.388L2.831,88.275H2.247A2.259,2.259,0,0,0,.031,90.183l8.19,5.46H0v5.263H8.221l-8.19,5.46a2.259,2.259,0,0,0,2.216,1.908h.585l9.582-6.388v6.388h5.172v-6.388l9.582,6.388h.585a2.259,2.259,0,0,0,2.216-1.908l-8.19-5.46H30V95.643H21.779Z" transform="translate(0 -88.275)" fill="#fff"/>
    <g id="Group_321" data-name="Group 321" transform="translate(0 0)">
      <path id="Path_823" data-name="Path 823" d="M16.552,88.276h-3.1V96.7H0v3.158H13.448v8.421h3.1V99.855H30V96.7H16.552Z" transform="translate(0 -88.276)" fill="#c8102e"/>
      <path id="Path_824" data-name="Path 824" d="M10.153,307.363l11.13-7.225H19.349L9.224,306.71A2.29,2.29,0,0,0,10.153,307.363Z" transform="translate(-8.674 -287.51)" fill="#c8102e"/>
      <path id="Path_825" data-name="Path 825" d="M315.894,300.138H313.96l10.78,7a2.3,2.3,0,0,0,.733-.78Z" transform="translate(-295.774 -287.51)" fill="#c8102e"/>
      <path id="Path_826" data-name="Path 826" d="M4.049,96.655l9.409,6.108h1.934L4.731,95.842A2.3,2.3,0,0,0,4.049,96.655Z" transform="translate(-3.807 -95.391)" fill="#c8102e"/>
      <path id="Path_827" data-name="Path 827" d="M302.072,97.859l10.143-6.584a2.291,2.291,0,0,0-.937-.648l-11.141,7.232Z" transform="translate(-282.776 -90.487)" fill="#c8102e"/>
    </g>
    <path id="Path_854" data-name="Path 854" d="M27.753,88.276H2.247A2.267,2.267,0,0,0,0,90.562V105.99a2.267,2.267,0,0,0,2.247,2.286H27.753A2.267,2.267,0,0,0,30,105.99V90.562A2.267,2.267,0,0,0,27.753,88.276Z" transform="translate(0 -88.276)" fill="#fff" opacity="0.23"/>
    <path id="Path_859" data-name="Path 859" d="M27.753,88.276H2.247A2.267,2.267,0,0,0,0,90.562V105.99a2.267,2.267,0,0,0,2.247,2.286H27.753A2.267,2.267,0,0,0,30,105.99V90.562A2.267,2.267,0,0,0,27.753,88.276Z" transform="translate(0 -88.276)" fill="none" stroke="#4a4a4a" stroke-width="1"/>
  </g>
</svg>